<svg width="24" height="25" viewBox="0 0 24 25" fill="none" xmlns="http://www.w3.org/2000/svg">
<g clip-path="url(#clip0_416_121298)">
<path d="M24 12.9331C24 6.30568 18.6274 0.933105 12 0.933105C5.37258 0.933105 0 6.30568 0 12.9331C0 18.9226 4.3882 23.8871 10.125 24.7873V16.4019H7.07812V12.9331H10.125V10.2894C10.125 7.28186 11.9166 5.62061 14.6576 5.62061C15.9701 5.62061 17.3438 5.85498 17.3438 5.85498V8.80811H15.8306C14.34 8.80811 13.875 9.73318 13.875 10.6831V12.9331H17.2031L16.6711 16.4019H13.875V24.7873C19.6118 23.8871 24 18.9226 24 12.9331Z" fill="#9CA3AF"/>
</g>
<defs>
<clipPath id="clip0_416_121298">
<rect width="24" height="24" fill="white" transform="translate(0 0.933105)"/>
</clipPath>
</defs>
</svg>
