<svg width="24" height="25" viewBox="0 0 24 25" fill="none" xmlns="http://www.w3.org/2000/svg">
<path d="M7.55016 22.6831C16.6045 22.6831 21.5583 15.1798 21.5583 8.67497C21.5583 8.46403 21.5536 8.2484 21.5442 8.03747C22.5079 7.34057 23.3395 6.47736 24 5.4884C23.1025 5.88771 22.1496 6.14849 21.1739 6.26184C22.2013 5.64601 22.9705 4.67858 23.3391 3.53887C22.3726 4.11166 21.3156 4.51572 20.2134 4.73372C19.4708 3.94467 18.489 3.42222 17.4197 3.24716C16.3504 3.07209 15.2532 3.25416 14.2977 3.7652C13.3423 4.27625 12.5818 5.08781 12.1338 6.07442C11.6859 7.06102 11.5754 8.16772 11.8195 9.2234C9.86249 9.1252 7.94794 8.61681 6.19998 7.7312C4.45203 6.8456 2.90969 5.60254 1.67297 4.08262C1.0444 5.16635 0.852057 6.44875 1.13503 7.6692C1.418 8.88964 2.15506 9.95655 3.19641 10.6531C2.41463 10.6283 1.64998 10.4178 0.965625 10.039V10.1C0.964925 11.2373 1.3581 12.3397 2.07831 13.2199C2.79852 14.1001 3.80132 14.7037 4.91625 14.9281C4.19206 15.1262 3.43198 15.1551 2.69484 15.0125C3.00945 15.9905 3.62157 16.846 4.44577 17.4594C5.26997 18.0729 6.26512 18.4137 7.29234 18.4343C5.54842 19.8042 3.39417 20.5472 1.17656 20.5437C0.783287 20.5431 0.390399 20.519 0 20.4715C2.25286 21.9169 4.87353 22.6845 7.55016 22.6831Z" fill="#9CA3AF"/>
</svg>
