<svg width="24" height="25" viewBox="0 0 24 25" fill="none" xmlns="http://www.w3.org/2000/svg">
<path fill-rule="evenodd" clip-rule="evenodd" d="M11.9999 22.5674C17.3018 22.5674 21.5999 18.2693 21.5999 12.9674C21.5999 7.66547 17.3018 3.3674 11.9999 3.3674C6.69797 3.3674 2.3999 7.66547 2.3999 12.9674C2.3999 18.2693 6.69797 22.5674 11.9999 22.5674ZM16.4484 11.4159C16.9171 10.9473 16.9171 10.1875 16.4484 9.71887C15.9798 9.25024 15.22 9.25024 14.7514 9.71887L10.7999 13.6703L9.24843 12.1189C8.7798 11.6502 8.02 11.6502 7.55137 12.1189C7.08275 12.5875 7.08275 13.3473 7.55137 13.8159L9.95137 16.2159C10.42 16.6846 11.1798 16.6846 11.6484 16.2159L16.4484 11.4159Z" fill="#22C55E"/>
</svg>
