<svg width="24" height="25" viewBox="0 0 24 25" fill="none" xmlns="http://www.w3.org/2000/svg">
<g clip-path="url(#clip0_416_121300)">
<path d="M12 3.09404C15.2063 3.09404 15.5859 3.10811 16.8469 3.16436C18.0188 3.21592 18.6516 3.41279 19.0734 3.57686C19.6313 3.79248 20.0344 4.05498 20.4516 4.47217C20.8734 4.89404 21.1313 5.29248 21.3469 5.85029C21.5109 6.27217 21.7078 6.90967 21.7594 8.07686C21.8156 9.34248 21.8297 9.72217 21.8297 12.9237C21.8297 16.13 21.8156 16.5097 21.7594 17.7706C21.7078 18.9425 21.5109 19.5753 21.3469 19.9972C21.1313 20.555 20.8687 20.9581 20.4516 21.3753C20.0297 21.7972 19.6313 22.055 19.0734 22.2706C18.6516 22.4347 18.0141 22.6315 16.8469 22.6831C15.5813 22.7394 15.2016 22.7534 12 22.7534C8.79375 22.7534 8.41406 22.7394 7.15313 22.6831C5.98125 22.6315 5.34844 22.4347 4.92656 22.2706C4.36875 22.055 3.96563 21.7925 3.54844 21.3753C3.12656 20.9534 2.86875 20.555 2.65313 19.9972C2.48906 19.5753 2.29219 18.9378 2.24063 17.7706C2.18438 16.505 2.17031 16.1253 2.17031 12.9237C2.17031 9.71748 2.18438 9.33779 2.24063 8.07686C2.29219 6.90498 2.48906 6.27217 2.65313 5.85029C2.86875 5.29248 3.13125 4.88936 3.54844 4.47217C3.97031 4.05029 4.36875 3.79248 4.92656 3.57686C5.34844 3.41279 5.98594 3.21592 7.15313 3.16436C8.41406 3.10811 8.79375 3.09404 12 3.09404ZM12 0.933105C8.74219 0.933105 8.33438 0.947168 7.05469 1.00342C5.77969 1.05967 4.90313 1.26592 4.14375 1.56123C3.35156 1.87061 2.68125 2.27842 2.01563 2.94873C1.34531 3.61436 0.9375 4.28467 0.628125 5.07217C0.332812 5.83623 0.126563 6.70811 0.0703125 7.98311C0.0140625 9.26748 0 9.67529 0 12.9331C0 16.1909 0.0140625 16.5987 0.0703125 17.8784C0.126563 19.1534 0.332812 20.03 0.628125 20.7894C0.9375 21.5815 1.34531 22.2519 2.01563 22.9175C2.68125 23.5831 3.35156 23.9956 4.13906 24.3003C4.90313 24.5956 5.775 24.8019 7.05 24.8581C8.32969 24.9144 8.7375 24.9284 11.9953 24.9284C15.2531 24.9284 15.6609 24.9144 16.9406 24.8581C18.2156 24.8019 19.0922 24.5956 19.8516 24.3003C20.6391 23.9956 21.3094 23.5831 21.975 22.9175C22.6406 22.2519 23.0531 21.5815 23.3578 20.794C23.6531 20.03 23.8594 19.1581 23.9156 17.8831C23.9719 16.6034 23.9859 16.1956 23.9859 12.9378C23.9859 9.67998 23.9719 9.27217 23.9156 7.99248C23.8594 6.71748 23.6531 5.84092 23.3578 5.08154C23.0625 4.28467 22.6547 3.61436 21.9844 2.94873C21.3188 2.28311 20.6484 1.87061 19.8609 1.56592C19.0969 1.27061 18.225 1.06436 16.95 1.00811C15.6656 0.947168 15.2578 0.933105 12 0.933105Z" fill="#9CA3AF"/>
<path d="M12 6.76904C8.59688 6.76904 5.83594 9.52998 5.83594 12.9331C5.83594 16.3362 8.59688 19.0972 12 19.0972C15.4031 19.0972 18.1641 16.3362 18.1641 12.9331C18.1641 9.52998 15.4031 6.76904 12 6.76904ZM12 16.9315C9.79219 16.9315 8.00156 15.1409 8.00156 12.9331C8.00156 10.7253 9.79219 8.93467 12 8.93467C14.2078 8.93467 15.9984 10.7253 15.9984 12.9331C15.9984 15.1409 14.2078 16.9315 12 16.9315Z" fill="#9CA3AF"/>
<path d="M19.8469 6.52525C19.8469 7.32212 19.2 7.96431 18.4078 7.96431C17.6109 7.96431 16.9688 7.31743 16.9688 6.52525C16.9688 5.72837 17.6156 5.08618 18.4078 5.08618C19.2 5.08618 19.8469 5.73306 19.8469 6.52525Z" fill="#9CA3AF"/>
</g>
<defs>
<clipPath id="clip0_416_121300">
<rect width="24" height="24" fill="white" transform="translate(0 0.933105)"/>
</clipPath>
</defs>
</svg>
