<svg width="24" height="25" viewBox="0 0 24 25" fill="none" xmlns="http://www.w3.org/2000/svg">
<g clip-path="url(#clip0_416_121301)">
<path d="M22.2234 0.933105H1.77187C0.792187 0.933105 0 1.70654 0 2.66279V23.1987C0 24.155 0.792187 24.9331 1.77187 24.9331H22.2234C23.2031 24.9331 24 24.155 24 23.2034V2.66279C24 1.70654 23.2031 0.933105 22.2234 0.933105ZM7.12031 21.3847H3.55781V9.92842H7.12031V21.3847ZM5.33906 8.36748C4.19531 8.36748 3.27188 7.44404 3.27188 6.30498C3.27188 5.16592 4.19531 4.24248 5.33906 4.24248C6.47813 4.24248 7.40156 5.16592 7.40156 6.30498C7.40156 7.43936 6.47813 8.36748 5.33906 8.36748ZM20.4516 21.3847H16.8937V15.8159C16.8937 14.4894 16.8703 12.7784 15.0422 12.7784C13.1906 12.7784 12.9094 14.2269 12.9094 15.7222V21.3847H9.35625V9.92842H12.7687V11.494H12.8156C13.2891 10.594 14.4516 9.64248 16.1813 9.64248C19.7859 9.64248 20.4516 12.0144 20.4516 15.0987V21.3847Z" fill="#9CA3AF"/>
</g>
<defs>
<clipPath id="clip0_416_121301">
<rect width="24" height="24" fill="white" transform="translate(0 0.933105)"/>
</clipPath>
</defs>
</svg>
